# xmcd
#
# Track frame offsets: 
#        150
#        31756
#        55698
#        76398
#        91661
#        108613
#        134087
#        168188
#        193024
#        214647
#        235302
#        272681
#        303306
#
# Disc length: 4467 seconds
#
# Revision: 0
# Processed by: cddbd v1.5.2PL0 Copyright (c) Steve Scherf et al.
# Submitted via: ExactAudioCopy v0.99pb4
#
DISCID=a811710d
DTITLE=ZIEBOLZ, Burkhard - Riesen and Zwerge (Krimi-7 CD-107 Tracks)
DYEAR=2006
DGENRE=Hörbuch
TTITLE0=062 Riesen and Zwerge-CD 5-01
TTITLE1=063 Riesen and Zwerge-CD 5-02
TTITLE2=064 Riesen and Zwerge-CD 5-03
TTITLE3=065 Riesen and Zwerge-CD 5-04
TTITLE4=066 Riesen and Zwerge-CD 5-05
TTITLE5=067 Riesen and Zwerge-CD 5-06
TTITLE6=068 Riesen and Zwerge-CD 5-07
TTITLE7=069 Riesen and Zwerge-CD 5-08
TTITLE8=070 Riesen and Zwerge-CD 5-09
TTITLE9=071 Riesen and Zwerge-CD 5-10
TTITLE10=072 Riesen and Zwerge-CD 5-11
TTITLE11=073 Riesen and Zwerge-CD 5-12
TTITLE12=074 Riesen and Zwerge-CD 5-13
EXTD=
EXTT0=
EXTT1=
EXTT2=
EXTT3=
EXTT4=
EXTT5=
EXTT6=
EXTT7=
EXTT8=
EXTT9=
EXTT10=
EXTT11=
EXTT12=
PLAYORDER=
